<svg width="87" height="64" viewBox="0 0 87 64" fill="none" xmlns="http://www.w3.org/2000/svg">
<path d="M82.1493 36.9852H12.614C10.0266 36.9852 7.7627 34.7339 7.7627 32.161C7.7627 29.5882 9.70322 27.3369 12.614 27.3369H82.4727C85.0601 27.3369 87.3241 29.5882 87.3241 32.161C87.3241 34.7339 85.0601 36.9852 82.1493 36.9852Z" fill="#F9C49B"/>
<path d="M34.2825 63.9993C32.9888 63.9993 31.6952 63.6777 30.7249 62.7129L0 32.1602L30.7249 1.60739C32.6654 -0.322256 35.5762 -0.322256 37.5167 1.60739C39.4572 3.53704 39.4572 6.43151 37.5167 8.36116L13.5836 32.1602L37.5167 55.9591C39.4572 57.8888 39.4572 60.7833 37.5167 62.7129C36.8699 63.6777 35.5762 63.9993 34.2825 63.9993Z" fill="#F9C49B"/>
</svg>
