<svg width="51" height="50" viewBox="0 0 51 50" fill="none" xmlns="http://www.w3.org/2000/svg">
<path d="M49.6723 11.5338C49.3049 11.0819 48.7536 10.8196 48.1713 10.8196H13.1338L12.9902 9.50117L12.9851 9.4588C12.2984 4.22461 7.79947 0.277344 2.5203 0.277344C1.45195 0.277344 0.585938 1.14336 0.585938 2.21171C0.585938 3.28006 1.45195 4.14607 2.5203 4.14607C5.85766 4.14607 8.70282 6.63647 9.14666 9.9422L11.4459 31.0656C9.43517 31.9782 8.03324 34.0051 8.03324 36.3532C8.03324 36.3694 8.03343 36.3855 8.03382 36.4016C8.03343 36.4176 8.03324 36.4338 8.03324 36.45C8.03324 39.6498 10.6365 42.253 13.8363 42.253H14.6234C14.4267 42.8299 14.3199 43.448 14.3199 44.0907C14.3199 47.2371 16.8798 49.7971 20.0263 49.7971C23.1728 49.7971 25.7327 47.2371 25.7327 44.0907C25.7327 43.448 25.6259 42.8299 25.4292 42.253H33.7737C33.577 42.8299 33.4702 43.448 33.4702 44.0907C33.4702 47.2371 36.0301 49.7971 39.1766 49.7971C42.3231 49.7971 44.883 47.2371 44.883 44.0907C44.883 40.9443 42.3231 38.3843 39.1766 38.3843H13.8363C12.7697 38.3843 11.902 37.5166 11.902 36.45C11.902 36.4338 11.9018 36.4176 11.9014 36.4016C11.9018 36.3855 11.902 36.3694 11.902 36.3532C11.902 35.2866 12.7697 34.4189 13.8363 34.4189H38.5315C41.9653 34.4189 45.1164 32.2944 46.5597 29.0063C46.989 28.0281 46.5441 26.887 45.5659 26.4576C44.5877 26.0283 43.4466 26.4732 43.0172 27.4514C42.2037 29.3049 40.401 30.5501 38.5315 30.5501H15.2814L13.5549 14.6884H45.7918L44.8453 19.226C44.6272 20.2718 45.2982 21.2964 46.344 21.5145C46.4772 21.5424 46.61 21.5557 46.7409 21.5557C47.6377 21.5557 48.4422 20.9286 48.6325 20.016L50.0648 13.149C50.1838 12.5789 50.0396 11.9857 49.6723 11.5338ZM39.1765 42.253C40.1898 42.253 41.0141 43.0774 41.0141 44.0907C41.0141 45.104 40.1898 45.9283 39.1765 45.9283C38.1632 45.9283 37.3389 45.104 37.3389 44.0907C37.3389 43.0774 38.1632 42.253 39.1765 42.253ZM20.0263 42.253C21.0396 42.253 21.8639 43.0775 21.8639 44.0907C21.8639 45.104 21.0396 45.9283 20.0263 45.9283C19.013 45.9283 18.1887 45.104 18.1887 44.0907C18.1887 43.0774 19.013 42.253 20.0263 42.253Z" fill="#A4A4A4"/>
</svg>
