<svg id="Layer_1" data-name="Layer 1" xmlns="http://www.w3.org/2000/svg" viewBox="0 0 52 52"><defs><clipPath id="clip-path"><path fill="none" d="M1.25 1h50.67v50.67H1.25z"/></clipPath><style>.cls-3{fill:#999}</style></defs><g clip-path="url(#clip-path)"><path class="cls-3" d="M26.49.9a25.33 25.33 0 1025.33 25.33A25.32 25.32 0 0026.49.9zm0 47.6a22.26 22.26 0 1122.26-22.27A22.29 22.29 0 0126.49 48.5z"/><path class="cls-3" d="M44.42 28.78a1.54 1.54 0 00-1.84 1.15 16.52 16.52 0 01-32.19 0 1.54 1.54 0 00-3 .69 19.59 19.59 0 0038.18 0 1.54 1.54 0 00-1.15-1.84zM8.9 23.73a1.54 1.54 0 001.5-1.19 16.52 16.52 0 0132.19 0 1.54 1.54 0 003-.69 19.59 19.59 0 00-38.18 0 1.54 1.54 0 001.49 1.88z"/><path class="cls-3" d="M26.19 38.94a1.54 1.54 0 001.54-1.54v-2.19H29a5.26 5.26 0 002.81-9.7 5.25 5.25 0 00-4.07-8.25v-2.19a1.54 1.54 0 00-3.07 0v2.19h-2.95a1.54 1.54 0 00-1.54 1.54v14.88a1.54 1.54 0 001.54 1.54h2.94v2.18a1.54 1.54 0 001.53 1.54zm-2.94-18.61h4.23a2.19 2.19 0 110 4.37h-4.23zm0 7.44H29a2.19 2.19 0 010 4.37h-5.75z"/></g></svg>