<svg width="51" height="51" viewBox="0 0 51 51" fill="none" xmlns="http://www.w3.org/2000/svg">
<path d="M50.439 11.789C50.0677 11.3321 49.5103 11.0669 48.9215 11.0669H13.497L13.3519 9.7339L13.3467 9.69107C12.6524 4.39906 8.10376 0.408203 2.76628 0.408203C1.68613 0.408203 0.810547 1.28378 0.810547 2.36393C0.810547 3.44408 1.68613 4.31966 2.76628 4.31966C6.1405 4.31966 9.01708 6.83757 9.46582 10.1798L11.7905 31.5365C9.75752 32.4592 8.34011 34.5085 8.34011 36.8826C8.34011 36.8989 8.3403 36.9152 8.34069 36.9314C8.3403 36.9477 8.34011 36.964 8.34011 36.9803C8.34011 40.2155 10.9721 42.8475 14.2073 42.8475H15.0031C14.8042 43.4307 14.6962 44.0557 14.6962 44.7055C14.6962 47.8867 17.2843 50.4749 20.4656 50.4749C23.6469 50.4749 26.235 47.8867 26.235 44.7055C26.235 44.0557 26.1271 43.4307 25.9282 42.8475H34.3649C34.166 43.4307 34.058 44.0557 34.058 44.7055C34.058 47.8867 36.6462 50.4749 39.8274 50.4749C43.0087 50.4749 45.5969 47.8867 45.5969 44.7055C45.5969 41.5243 43.0087 38.9361 39.8274 38.9361H14.2073C13.1289 38.9361 12.2516 38.0587 12.2516 36.9803C12.2516 36.964 12.2514 36.9477 12.251 36.9314C12.2514 36.9152 12.2516 36.8989 12.2516 36.8826C12.2516 35.8042 13.1289 34.9268 14.2073 34.9268H39.1752C42.6469 34.9268 45.8329 32.7789 47.2921 29.4545C47.7262 28.4655 47.2763 27.3118 46.2873 26.8776C45.2983 26.4436 44.1446 26.8934 43.7105 27.8824C42.888 29.7564 41.0654 31.0154 39.1752 31.0154H15.6683L13.9227 14.9784H46.5158L45.5588 19.5661C45.3383 20.6235 46.0167 21.6595 47.074 21.88C47.2087 21.9081 47.3429 21.9216 47.4753 21.9216C48.382 21.9216 49.1954 21.2876 49.3878 20.3649L50.836 13.422C50.9562 12.8457 50.8104 12.2458 50.439 11.789ZM39.8274 42.8475C40.8519 42.8475 41.6853 43.681 41.6853 44.7055C41.6853 45.73 40.8519 46.5634 39.8274 46.5634C38.8028 46.5634 37.9694 45.73 37.9694 44.7055C37.9694 43.681 38.8028 42.8475 39.8274 42.8475ZM20.4656 42.8475C21.4901 42.8475 22.3236 43.6811 22.3236 44.7055C22.3236 45.73 21.4901 46.5634 20.4656 46.5634C19.4411 46.5634 18.6077 45.73 18.6077 44.7055C18.6077 43.681 19.4411 42.8475 20.4656 42.8475Z" fill="#F59E39"/>
</svg>
