<svg width="97" height="133" fill="none" xmlns="http://www.w3.org/2000/svg"><path d="M48.498 99.97c2.187 0 3.96-1.805 3.96-4.029V79.253c0-2.225-1.773-4.028-3.96-4.028-2.185 0-3.959 1.803-3.959 4.028v16.688c0 2.224 1.773 4.028 3.96 4.028z" fill="#999"/><path d="M93.107 42.621h-18.42V23.693C74.686 10.628 62.938 0 48.498 0 34.061 0 22.314 10.628 22.314 23.693V42.62H3.892A3.89 3.89 0 000 46.508v49.694c0 20.088 16.37 36.432 36.492 36.432h24.016C80.63 132.633 97 116.289 97 96.201V46.507a3.89 3.89 0 00-3.893-3.886zM30.098 23.693c0-8.78 8.255-15.922 18.401-15.922 10.147 0 18.403 7.143 18.403 15.922V42.62H30.098V23.693zM89.215 96.2c0 15.803-12.878 28.66-28.708 28.66H36.492c-15.83 0-28.708-12.857-28.708-28.66V50.393h81.43v45.808z" fill="#999"/></svg>