<svg width="24" height="24" fill="none" xmlns="http://www.w3.org/2000/svg"><g clip-path="url(#clip0)"><path d="M15.039 17.428h1.874v3.748c0 1.55-1.261 2.81-2.812 2.81H2.812a2.813 2.813 0 01-2.811-2.81V2.81A2.812 2.812 0 012.81 0h11.291a2.814 2.814 0 012.812 2.81v3.75h-1.874V2.81a.938.938 0 00-.938-.937H2.812a.938.938 0 00-.937.937v18.365c0 .516.42.937.937.937H14.1c.517 0 .938-.42.938-.937v-3.748zm4.544-9.852l-1.325 1.325 2.155 2.155H8.293v1.874h12.12l-2.155 2.155 1.325 1.325L24 11.993l-4.417-4.417z" fill="#FF8393"/></g><defs><clipPath id="clip0"><path fill="#fff" d="M0 0h24v24H0z"/></clipPath></defs></svg>