<svg id="Layer_1" data-name="Layer 1" xmlns="http://www.w3.org/2000/svg" viewBox="0 0 221.35 221.53"><defs><style>.cls-1{fill:#f5c16e;opacity:.78}</style></defs><path class="cls-1" d="M219.54 170.36a3.24 3.24 0 00-6.28 1.62 51.2 51.2 0 011.5 9.55h-61.44a11.91 11.91 0 00-2.67-.78v-.22a41 41 0 00-18.82-34.46 50.34 50.34 0 0116.69-9.37 16.87 16.87 0 0031.7 0 50.49 50.49 0 0128.54 23.86 3.24 3.24 0 105.7-3.1 57 57 0 00-9.28-12.59 26.48 26.48 0 007.73-10.2c8.49-18.06 8.47-52.56 2.49-68.14a54.62 54.62 0 00-87-21.55 3.25 3.25 0 004.28 4.88 48.14 48.14 0 0176.71 19c5.41 14.11 5.41 46.63-2.31 63.05-1.95 4.16-4.24 7-6.79 8.45a57 57 0 00-18.77-10.08 39.8 39.8 0 0022.66-35.88v-6.54a3.25 3.25 0 00-2.7-3.2c-16.06-2.76-27.18-19.06-27.29-19.22a3.27 3.27 0 00-5.7.58c-.07.18-7.95 18.6-40.57 18.6a3.24 3.24 0 00-3.24 3.24v6.57a39.77 39.77 0 0022.63 35.86 56.61 56.61 0 00-18.75 10.1c-2.55-1.46-4.83-4.29-6.79-8.45C114 115.52 114 83 119.42 68.89a48.54 48.54 0 015.16-9.89 3.25 3.25 0 00-5.37-3.65 54.68 54.68 0 00-5.85 11.19c-6 15.58-6 50.08 2.5 68.14a33.26 33.26 0 003.58 6 41.38 41.38 0 00-8.83-1.17 28.81 28.81 0 01.07-8.93 3.25 3.25 0 00-6.34-1.4 30.42 30.42 0 00-.44 8.35 13.82 13.82 0 01-6.13-8.5 3.24 3.24 0 00-6.4 1.07A20.32 20.32 0 0098 141.23c-1 .3-2 .64-3 1a56.46 56.46 0 00-20.93-11.93 40.08 40.08 0 0016.53-14.72 11.68 11.68 0 005.4 1.32 11.83 11.83 0 009.68-18.63c8.47-24.59 4.73-39 0-46.79a29.84 29.84 0 00-22-14.07 28.14 28.14 0 00-15.35 2.29c-4.51-5.37-9.65-8.26-20.3-8.26-12.22 0-29.56 6.34-38.72 20.27-10.18 15.44-6.49 33.6-1.19 46.73a11.82 11.82 0 0015.2 17.14 40 40 0 0016.5 14.71 56.58 56.58 0 00-24 14.92 3.24 3.24 0 004.68 4.49 50.27 50.27 0 0120.56-13 16.87 16.87 0 0031.71 0 50.17 50.17 0 0115.82 8.64 41 41 0 00-20 35.18v.22a12.07 12.07 0 00-2.67.78H6.59a50.48 50.48 0 016.61-22.06 3.24 3.24 0 10-5.62-3.24A57 57 0 000 184.64v.13A3.25 3.25 0 003.24 188h56.4a11.69 11.69 0 00-.86 4.4 11.83 11.83 0 0016.73 10.77 41 41 0 0068.3 0 11.83 11.83 0 0016.72-10.77 11.69 11.69 0 00-.85-4.4h58.42a3.26 3.26 0 003.25-3.25v-.13a57.1 57.1 0 00-1.81-14.26zM96 110.41a5.19 5.19 0 01-2.4-.58 39.2 39.2 0 002.75-10.09 5.34 5.34 0 01-.35 10.67zM14.73 55.28C22.57 43.36 37.49 37.93 48 37.93c10.3 0 13.22 3 16.81 7.84a3.27 3.27 0 004.42.77 21.39 21.39 0 0113.55-2.7 23.45 23.45 0 0117.33 11c5.47 9 5.49 22.53.12 39.19a11.73 11.73 0 00-3.55-.77v-5.4a3.25 3.25 0 00-2.7-3.2C78 81.9 66.83 65.6 66.73 65.44A3.27 3.27 0 0061 66s-2 4.69-8 9.27c-7.9 6.11-19.18 9.35-32.63 9.35a3.24 3.24 0 00-3.24 3.24v5.4a11.83 11.83 0 00-3.81.87C7.52 78.6 8 65.55 14.73 55.28zm3.19 55.13a5.34 5.34 0 01-.35-10.67 39.71 39.71 0 002.74 10.09 5.3 5.3 0 01-2.39.58zm5.86-13.77c-.05-.72-.08-1.44-.08-2.16v-3.43C48.31 90.17 59.75 79.34 64.36 73 68.83 78.3 78 87.39 90.22 90.49v3.94c0 .72 0 1.44-.08 2.16a33.25 33.25 0 01-66.36 0zM57 141.32a10.41 10.41 0 01-9.53-6.25 51.41 51.41 0 0119.05 0 10.41 10.41 0 01-9.52 6.25zm107.43 0a10.41 10.41 0 01-9.53-6.25 51.08 51.08 0 0119 0 10.39 10.39 0 01-9.51 6.25zm-33.3-46.89v-3.38c24.61-.88 36.05-11.71 40.66-18.06 4.47 5.31 13.61 14.4 25.86 17.5v3.94a33.26 33.26 0 01-66.52 0zM70.62 197.76a5.34 5.34 0 01-1.4-10.49 40.37 40.37 0 003.11 10.2 5.25 5.25 0 01-1.71.29zm39 17.28a34.51 34.51 0 1134.51-34.51A34.55 34.55 0 01109.66 215zm39-17.28a5.2 5.2 0 01-1.71-.29 40.37 40.37 0 003.11-10.2 5.34 5.34 0 01-1.4 10.49z"/><path class="cls-1" d="M94.57 179.15a5.26 5.26 0 105.26 5.26 5.27 5.27 0 00-5.26-5.26zM124.74 179.15a5.26 5.26 0 105.26 5.26 5.27 5.27 0 00-5.26-5.26zM102.2 31.3a54.57 54.57 0 0010.52 7 3.27 3.27 0 002.83 0 54.66 54.66 0 0010.51-7c7.15-6.16 10.44-12.93 9.53-19.58C134.5 3.75 128.84.47 123.91.05a13.26 13.26 0 00-9.78 3 13.26 13.26 0 00-9.77-3c-4.93.42-10.59 3.7-11.68 11.67-.91 6.65 2.38 13.42 9.52 19.58zm-3.09-18.7c.67-4.93 3.92-5.92 5.79-6.08h.63c2.58 0 4.93 1.32 5.51 3.18a3.24 3.24 0 006.19 0c.63-2 3.32-3.39 6.14-3.15 1.87.16 5.12 1.15 5.79 6.08 1.14 8.34-9.4 16-15 19.15C108.51 28.63 98 20.94 99.11 12.6z"/></svg>