<svg width="24" height="24" fill="none" xmlns="http://www.w3.org/2000/svg"><path d="M22.771 9.48l-1.684-.285a9.517 9.517 0 00-.677-1.635l.993-1.388a1.478 1.478 0 00-.16-1.91l-1.495-1.495a1.472 1.472 0 00-1.905-.16L16.45 3.6a9.41 9.41 0 00-1.694-.697l-.28-1.665A1.481 1.481 0 0013.01 0H10.9c-.728 0-1.344.521-1.465 1.238l-.29 1.705a9.278 9.278 0 00-1.63.687l-1.378-.993a1.472 1.472 0 00-.863-.276c-.396 0-.772.156-1.048.437L2.727 4.292a1.484 1.484 0 00-.16 1.91L3.57 7.61a9.29 9.29 0 00-.667 1.639l-1.665.28A1.481 1.481 0 000 10.996v2.11a1.48 1.48 0 001.238 1.464l1.705.291c.175.562.406 1.108.687 1.63l-.988 1.373a1.478 1.478 0 00.16 1.91l1.495 1.494a1.472 1.472 0 001.905.16l1.409-1.002a9.49 9.49 0 001.584.652l.28 1.684c.12.717.738 1.239 1.465 1.239h2.115c.727 0 1.344-.522 1.464-1.238l.286-1.685a9.51 9.51 0 001.634-.677l1.39.993c.25.18.55.276.861.276.397 0 .768-.156 1.048-.437l1.494-1.494a1.484 1.484 0 00.16-1.91l-.992-1.394a9.442 9.442 0 00.677-1.634l1.684-.28A1.481 1.481 0 0024 13.054v-2.11a1.463 1.463 0 00-1.23-1.464zm-.115 3.575a.13.13 0 01-.11.13l-2.106.352a.673.673 0 00-.541.496 8.024 8.024 0 01-.873 2.1.678.678 0 00.03.738l1.239 1.744c.035.05.03.126-.015.17l-1.494 1.495a.127.127 0 01-.096.04.123.123 0 01-.075-.025l-1.74-1.239a.677.677 0 00-.736-.03 8.024 8.024 0 01-2.101.873.665.665 0 00-.496.541l-.356 2.106a.13.13 0 01-.13.11h-2.111a.13.13 0 01-.13-.11l-.352-2.106a.673.673 0 00-.496-.541 8.334 8.334 0 01-2.056-.843.694.694 0 00-.34-.09.66.66 0 00-.392.126L5.425 20.34a.15.15 0 01-.076.025.134.134 0 01-.095-.04L3.76 18.83a.136.136 0 01-.015-.17l1.233-1.73a.686.686 0 00.03-.742 7.949 7.949 0 01-.882-2.096.687.687 0 00-.541-.496l-2.121-.361a.13.13 0 01-.11-.13v-2.111a.13.13 0 01.11-.13l2.09-.352a.678.678 0 00.547-.5 8.018 8.018 0 01.857-2.107.67.67 0 00-.035-.732L3.675 5.42a.137.137 0 01.015-.17l1.494-1.495a.127.127 0 01.095-.04c.03 0 .055.01.075.025l1.73 1.233c.22.156.512.166.742.03a7.95 7.95 0 012.096-.882.687.687 0 00.496-.541l.361-2.121a.13.13 0 01.13-.11h2.111a.13.13 0 01.13.11l.351 2.09a.68.68 0 00.502.547c.757.19 1.479.486 2.15.882a.677.677 0 00.738-.03l1.73-1.243a.15.15 0 01.075-.025c.02 0 .06.005.095.04l1.494 1.494c.045.045.05.115.015.17l-1.239 1.74a.678.678 0 00-.03.737c.392.657.682 1.364.873 2.1.065.262.28.457.541.497l2.106.356a.13.13 0 01.11.13v2.111h-.005z" fill="#F59E39"/><path d="M12.002 6.817a5.182 5.182 0 00-5.179 5.18 5.182 5.182 0 005.18 5.178 5.182 5.182 0 005.178-5.179 5.182 5.182 0 00-5.179-5.179zm0 9.005a3.828 3.828 0 01-3.825-3.825 3.828 3.828 0 013.825-3.826 3.828 3.828 0 013.826 3.825 3.828 3.828 0 01-3.826 3.826z" fill="#F59E39"/></svg>