<svg id="Layer_1" data-name="Layer 1" xmlns="http://www.w3.org/2000/svg" viewBox="0 0 52 52"><defs><clipPath id="clip-path"><path fill="none" d="M.64.65h50.67v50.67H.64z"/></clipPath><style>.cls-3{fill:#999;stroke:#999;stroke-width:.25px}</style></defs><g clip-path="url(#clip-path)"><path class="cls-3" d="M40.81 7.29h-4.58V5.24c0-.66-.72-1-1.39-1h-3.56A5.4 5.4 0 0025.92.66a5.49 5.49 0 00-5.37 3.62H17c-.66 0-1.33.3-1.33 1v2.01h-4.53a5.13 5.13 0 00-5.07 4.89v34.56a4.85 4.85 0 005.07 4.58h29.67a4.85 4.85 0 005.07-4.58V12.18a5.13 5.13 0 00-5.07-4.89zm-22.68-.6h3.32A1.33 1.33 0 0022.6 5.6a3.5 3.5 0 013.32-2.71 3.44 3.44 0 013.25 2.71 1.33 1.33 0 001.21 1.09h3.44v4.83H18.13zm25.33 40a2.45 2.45 0 01-2.65 2.17H11.14a2.45 2.45 0 01-2.65-2.17V12.18a2.71 2.71 0 012.65-2.48h4.58v3.08A1.27 1.27 0 0017 13.93h17.84a1.33 1.33 0 001.39-1.15V9.7h4.58a2.71 2.71 0 012.65 2.47v34.57z"/><path class="cls-3" d="M21.33 27.62a1.21 1.21 0 00-1.69-.06l-3.86 3.68-1.63-1.69a1.21 1.21 0 00-1.69-.06 1.27 1.27 0 000 1.75l2.47 2.53a1.09 1.09 0 00.84.36 1.21 1.21 0 00.84-.36l4.7-4.46a1.15 1.15 0 00.07-1.62zm17.31 2.59H24.77a1.21 1.21 0 100 2.41h13.87a1.21 1.21 0 100-2.41zM21.33 18a1.21 1.21 0 00-1.69-.06l-3.86 3.68-1.63-1.72a1.21 1.21 0 00-1.69-.06 1.27 1.27 0 000 1.75l2.47 2.53a1.09 1.09 0 00.84.36 1.21 1.21 0 00.84-.36l4.7-4.46A1.15 1.15 0 0021.4 18zm17.31 2.56H24.77a1.21 1.21 0 100 2.41h13.87a1.21 1.21 0 100-2.41zM21.33 37.27a1.21 1.21 0 00-1.69-.06l-3.86 3.68-1.63-1.69a1.21 1.21 0 00-1.69-.06 1.27 1.27 0 000 1.75l2.47 2.53a1.09 1.09 0 00.84.36 1.21 1.21 0 00.84-.36L21.33 39a1.15 1.15 0 00.07-1.62zm17.31 2.59H24.77a1.21 1.21 0 100 2.41h13.87a1.21 1.21 0 100-2.41z"/></g></svg>