<svg width="24" height="24" fill="none" xmlns="http://www.w3.org/2000/svg"><path d="M12 1.5c-4.265 0-7.734 3.47-7.734 7.734 0 4.265 3.47 7.735 7.734 7.735 4.265 0 7.734-3.47 7.734-7.735C19.734 4.97 16.264 1.5 12 1.5zM5.672 9.234c0-.095.267-.539 1.576-.97l.158-.05a13.523 13.523 0 000 2.04l-.158-.05c-1.309-.43-1.576-.874-1.576-.97zm.32 1.989c.24.11.51.216.816.317.254.084.524.16.805.23.215 1.068.564 2.024 1.014 2.816a6.358 6.358 0 01-2.635-3.363zm1.621-4.524c-.281.07-.55.146-.805.23-.306.1-.576.207-.816.317a6.359 6.359 0 012.635-3.364c-.45.793-.799 1.749-1.014 2.817zm3.684 8.7c-.531-.247-1.035-.771-1.462-1.536a7.79 7.79 0 01-.71-1.804c.687.097 1.418.16 2.172.183V15.4zm0-4.563a17.935 17.935 0 01-2.445-.242 11.872 11.872 0 010-2.72c.753-.13 1.58-.212 2.445-.24v3.201zm0-4.61c-.754.024-1.485.086-2.172.184a7.789 7.789 0 01.71-1.805c.427-.764.93-1.288 1.462-1.536v3.157zm6.71 1.02a7.787 7.787 0 00-.815-.317 11.19 11.19 0 00-.805-.23c-.215-1.068-.564-2.024-1.014-2.817a6.358 6.358 0 012.635 3.364zm-5.304-4.177c.531.248 1.035.772 1.462 1.537.296.53.535 1.14.71 1.804a20.068 20.068 0 00-2.172-.184V3.07zm1.462 10.794c-.427.764-.93 1.289-1.462 1.537v-3.158a20.081 20.081 0 002.173-.183 7.79 7.79 0 01-.711 1.804zm.983-3.27c-.753.131-1.58.214-2.445.242V7.633c.865.03 1.692.111 2.445.242a11.86 11.86 0 010 2.719zm.225 3.993c.45-.792.799-1.748 1.014-2.816.281-.07.55-.146.805-.23.306-.1.576-.207.816-.317a6.359 6.359 0 01-2.635 3.363zm1.379-4.382l-.158.05a13.567 13.567 0 000-2.04l.158.05c1.309.431 1.576.875 1.576.97 0 .096-.267.54-1.576.97z" fill="#999"/><path d="M23.893 12.585l-.647-.026a9.306 9.306 0 00-1.08.03l-.084.008c.198-.585.344-1.189.437-1.806A2.062 2.062 0 0024 8.817c0-.487-.276-1.053-.843-1.732a9.221 9.221 0 00-.743-.785l-.477-.439-.476.439c-.015.014-.377.349-.743.785-.567.68-.843 1.246-.843 1.732A2.06 2.06 0 0021.11 10.7a9.172 9.172 0 01-.835 2.59 2.04 2.04 0 00-.448.8 9.28 9.28 0 01-2.72 2.791A9.199 9.199 0 0112 18.422a9.198 9.198 0 01-6.31-2.492 9.274 9.274 0 01-1.517-1.839 2.04 2.04 0 00-.448-.8 9.173 9.173 0 01-.835-2.59 2.06 2.06 0 001.235-1.884c0-.486-.276-1.053-.843-1.732a9.233 9.233 0 00-.743-.785l-.477-.439-.476.439a9.232 9.232 0 00-.743.785C.276 7.765 0 8.331 0 8.817c0 .933.626 1.723 1.48 1.974.094.617.24 1.221.438 1.806l-.084-.008a9.306 9.306 0 00-1.08-.03l-.647.027-.027.646c0 .021-.02.514.03 1.081.079.881.284 1.477.628 1.821.401.4.927.6 1.454.6a2.058 2.058 0 001.607-.767c.242.293.501.574.776.842a9.226 9.226 0 00-1.207.627l-.546.346.3.573c.01.019.24.456.567.921.508.724.984 1.137 1.454 1.263A2.066 2.066 0 007.7 18.923c.345.153.699.287 1.059.402-.37.323-.639.614-.651.628l-.439.476.439.477c.014.015.35.38.79.747.682.57 1.25.847 1.739.847A2.05 2.05 0 0012 21.983a2.05 2.05 0 001.363.517c.488 0 1.057-.277 1.74-.848.438-.367.775-.731.79-.746l.438-.477-.439-.476a9.292 9.292 0 00-.651-.628c.36-.115.714-.25 1.06-.402a2.066 2.066 0 002.557 1.616c.469-.126.945-.539 1.453-1.263.328-.465.557-.902.567-.92l.3-.574-.547-.347c-.017-.01-.434-.274-.95-.514a6.812 6.812 0 00-.256-.112c.275-.268.534-.55.776-.842a2.058 2.058 0 001.607.768c.526 0 1.053-.2 1.454-.601.343-.344.549-.94.628-1.82.05-.568.03-1.06.03-1.082l-.027-.647zM1.406 8.82c.013-.172.293-.585.657-.997.362.411.642.824.656.996a.655.655 0 01-.656.65.654.654 0 01-.657-.649zm1.252 6.316a.654.654 0 01-.465.194.644.644 0 01-.458-.188c-.113-.13-.207-.62-.24-1.17.477.03.912.106 1.101.2.08.15.164.3.252.448a.657.657 0 01-.19.516zm3.648 3.58a.654.654 0 01-.796.466c-.163-.057-.49-.435-.793-.893.49-.244.96-.407 1.132-.376a.65.65 0 01.162.07l.07.048a.657.657 0 01.225.684zm4.334 2.378c-.174-.012-.592-.297-1.009-.665.416-.367.834-.651 1.008-.664a.663.663 0 01.658.664.662.662 0 01-.657.665zm2.723 0a.663.663 0 01-.66-.665c0-.365.295-.663.658-.664.174.013.592.297 1.008.664-.416.369-.835.653-1.006.665zm5.13-1.913a.657.657 0 01-.575-1.15c.024-.015.047-.032.071-.048a.643.643 0 01.162-.07c.17-.031.641.133 1.132.377-.303.457-.63.835-.79.89zm3.445-11.358c.363.412.643.824.656.994 0 .36-.295.652-.657.652a.655.655 0 01-.656-.65c.014-.172.294-.585.657-.996zm.33 7.317a.645.645 0 01-.46.19h-.001a.655.655 0 01-.655-.71c.088-.147.171-.297.252-.448.19-.094.624-.17 1.102-.2-.033.548-.127 1.038-.239 1.168z" fill="#999"/></svg>