<svg width="24" height="24" fill="none" xmlns="http://www.w3.org/2000/svg"><path fill="#E5E5E5" d="M0 0h24v24H0z"/><path fill="#fff" d="M0 0h24v24H0z"/><g clip-path="url(#clip0)" fill="#F59E39"><path d="M23.646 7.463c-.099-.054-2.402-1.25-6.24-1.974l-.148-.63a3.613 3.613 0 00-3.533-2.804h-3.45A3.616 3.616 0 006.742 4.86l-.148.63C2.756 6.207.453 7.408.354 7.462A.662.662 0 000 8.048v7.825a5.695 5.695 0 005.689 5.689.662.662 0 00.664-.665.662.662 0 00-.664-.664 4.365 4.365 0 01-4.36-4.36V8.467c.797-.364 2.903-1.226 5.93-1.747a.664.664 0 00.531-.502l.246-1.058a2.291 2.291 0 012.24-1.777h3.449a2.29 2.29 0 012.239 1.777l.246 1.058c.059.26.27.457.531.502 3.017.521 5.128 1.383 5.93 1.747v7.406a4.365 4.365 0 01-4.36 4.36.662.662 0 00-.664.664c0 .37.295.665.664.665A5.695 5.695 0 0024 15.872V8.049a.653.653 0 00-.354-.585z"/><path d="M2.175 6.104c.069 0 .137-.01.206-.034a26.137 26.137 0 012.18-.615.661.661 0 00.492-.797.661.661 0 00-.797-.492 29.52 29.52 0 00-2.293.644.664.664 0 00-.423.837c.098.28.36.457.635.457zm9.828.542c-4.218 0-7.648 3.43-7.648 7.647 0 4.218 3.43 7.653 7.648 7.653 4.217 0 7.647-3.43 7.647-7.648 0-4.217-3.43-7.652-7.647-7.652zm0 13.971a6.326 6.326 0 01-6.319-6.319c0-3.484 2.835-6.323 6.319-6.323a6.326 6.326 0 016.318 6.318c0 3.485-2.834 6.324-6.318 6.324z"/></g><defs><clipPath id="clip0"><path fill="#fff" d="M0 0h24v24H0z"/></clipPath></defs></svg>