<svg width="24" height="24" fill="none" xmlns="http://www.w3.org/2000/svg"><path d="M22.656 10.659h-.57v-3.43a2.543 2.543 0 00-2.54-2.54h-.527l.005-1.276c0-.945-.768-1.712-1.713-1.712H2.082A2.083 2.083 0 000 3.753v16.834c0 .945.768 1.712 1.713 1.712H19.55a2.543 2.543 0 002.54-2.54v-3.435h.57c.738 0 1.339-.6 1.339-1.339v-2.987a1.348 1.348 0 00-1.344-1.34zM2.082 2.882h15.229c.29 0 .532.236.532.527l-.005 1.28H2.082a.901.901 0 01-.9-.901c0-.498.403-.906.9-.906zm18.822 16.873a1.36 1.36 0 01-1.358 1.358H1.707a.532.532 0 01-.532-.531V5.662c.276.134.581.208.906.208h17.463c.749 0 1.359.61 1.359 1.358v3.43h-4.031a1.34 1.34 0 00-1.339 1.34v2.987c0 .739.6 1.34 1.339 1.34h4.031v3.43zm1.91-4.77a.155.155 0 01-.158.158h-5.778a.155.155 0 01-.158-.158v-2.987a.16.16 0 01.158-.158h5.778c.084 0 .158.069.158.158v2.987z" fill="#999"/></svg>